<?xml version="1.0" encoding="UTF-8" standalone="no"?>
<!DOCTYPE svg PUBLIC "-//W3C//DTD SVG 1.1//EN"
 "http://www.w3.org/Graphics/SVG/1.1/DTD/svg11.dtd">
<!-- Generated by graphviz version 13.1.0 (20250701.0955)
 -->
<!-- Title: interface/driver_nrf24l01_interface.h Pages: 1 -->
<svg width="510pt" height="176pt"
 viewBox="0.00 0.00 510.00 176.00" xmlns="http://www.w3.org/2000/svg" xmlns:xlink="http://www.w3.org/1999/xlink">
<g id="graph0" class="graph" transform="scale(1 1) rotate(0) translate(4 172)">
<title>interface/driver_nrf24l01_interface.h</title>
<!-- Node1 -->
<g id="Node000001" class="node">
<title>Node1</title>
<g id="a_Node000001"><a xlink:title="driver nrf24l01 interface header file">
<polygon fill="#999999" stroke="#666666" points="321.88,-168 201.62,-168 201.62,-136 321.88,-136 321.88,-168"/>
<text xml:space="preserve" text-anchor="start" x="209.62" y="-154.5" font-family="Helvetica,sans-Serif" font-size="10.00">interface/driver_nrf24l01</text>
<text xml:space="preserve" text-anchor="middle" x="261.75" y="-142.5" font-family="Helvetica,sans-Serif" font-size="10.00">_interface.h</text>
</a>
</g>
</g>
<!-- Node2 -->
<g id="Node000002" class="node">
<title>Node2</title>
<g id="a_Node000002"><a xlink:href="driver__nrf24l01__basic_8h.html" target="_top" xlink:title="driver nrf24l01 basic header file">
<polygon fill="white" stroke="#666666" points="119.5,-100 0,-100 0,-68 119.5,-68 119.5,-100"/>
<text xml:space="preserve" text-anchor="start" x="8" y="-86.5" font-family="Helvetica,sans-Serif" font-size="10.00">example/driver_nrf24l01</text>
<text xml:space="preserve" text-anchor="middle" x="59.75" y="-74.5" font-family="Helvetica,sans-Serif" font-size="10.00">_basic.h</text>
</a>
</g>
</g>
<!-- Node1&#45;&gt;Node2 -->
<g id="edge1_Node000001_Node000002" class="edge">
<title>Node1&#45;&gt;Node2</title>
<g id="a_edge1_Node000001_Node000002"><a xlink:title=" ">
<path fill="none" stroke="#63b8ff" d="M203.45,-131.95C172.89,-121.97 135.94,-109.89 107.16,-100.49"/>
<polygon fill="#63b8ff" stroke="#63b8ff" points="202.36,-135.28 212.95,-135.06 204.53,-128.62 202.36,-135.28"/>
</a>
</g>
</g>
<!-- Node4 -->
<g id="Node000004" class="node">
<title>Node4</title>
<g id="a_Node000004"><a xlink:href="driver__nrf24l01__interface__template_8c.html" target="_top" xlink:title="driver nrf24l01 interface template source file">
<polygon fill="white" stroke="#666666" points="257.88,-100 137.62,-100 137.62,-68 257.88,-68 257.88,-100"/>
<text xml:space="preserve" text-anchor="start" x="145.62" y="-86.5" font-family="Helvetica,sans-Serif" font-size="10.00">interface/driver_nrf24l01</text>
<text xml:space="preserve" text-anchor="middle" x="197.75" y="-74.5" font-family="Helvetica,sans-Serif" font-size="10.00">_interface_template.c</text>
</a>
</g>
</g>
<!-- Node1&#45;&gt;Node4 -->
<g id="edge3_Node000001_Node000004" class="edge">
<title>Node1&#45;&gt;Node4</title>
<g id="a_edge3_Node000001_Node000004"><a xlink:title=" ">
<path fill="none" stroke="#63b8ff" d="M238.89,-127.43C230.12,-118.38 220.34,-108.29 212.51,-100.22"/>
<polygon fill="#63b8ff" stroke="#63b8ff" points="236.38,-129.86 245.85,-134.61 241.4,-124.99 236.38,-129.86"/>
</a>
</g>
</g>
<!-- Node5 -->
<g id="Node000005" class="node">
<title>Node5</title>
<g id="a_Node000005"><a xlink:href="driver__nrf24l01__register__test_8h.html" target="_top" xlink:title="driver nrf24l01 register test header file">
<polygon fill="white" stroke="#666666" points="375.38,-100 276.12,-100 276.12,-68 375.38,-68 375.38,-100"/>
<text xml:space="preserve" text-anchor="start" x="284.12" y="-86.5" font-family="Helvetica,sans-Serif" font-size="10.00">test/driver_nrf24l01</text>
<text xml:space="preserve" text-anchor="middle" x="325.75" y="-74.5" font-family="Helvetica,sans-Serif" font-size="10.00">_register_test.h</text>
</a>
</g>
</g>
<!-- Node1&#45;&gt;Node5 -->
<g id="edge4_Node000001_Node000005" class="edge">
<title>Node1&#45;&gt;Node5</title>
<g id="a_edge4_Node000001_Node000005"><a xlink:title=" ">
<path fill="none" stroke="#63b8ff" d="M284.61,-127.43C293.38,-118.38 303.16,-108.29 310.99,-100.22"/>
<polygon fill="#63b8ff" stroke="#63b8ff" points="282.1,-124.99 277.65,-134.61 287.12,-129.86 282.1,-124.99"/>
</a>
</g>
</g>
<!-- Node7 -->
<g id="Node000007" class="node">
<title>Node7</title>
<g id="a_Node000007"><a xlink:href="driver__nrf24l01__send__receive__test_8h.html" target="_top" xlink:title="driver nrf24l01 send receive test header file">
<polygon fill="white" stroke="#666666" points="502.25,-100 393.25,-100 393.25,-68 502.25,-68 502.25,-100"/>
<text xml:space="preserve" text-anchor="start" x="401.25" y="-86.5" font-family="Helvetica,sans-Serif" font-size="10.00">test/driver_nrf24l01</text>
<text xml:space="preserve" text-anchor="middle" x="447.75" y="-74.5" font-family="Helvetica,sans-Serif" font-size="10.00">_send_receive_test.h</text>
</a>
</g>
</g>
<!-- Node1&#45;&gt;Node7 -->
<g id="edge6_Node000001_Node000007" class="edge">
<title>Node1&#45;&gt;Node7</title>
<g id="a_edge6_Node000001_Node000007"><a xlink:title=" ">
<path fill="none" stroke="#63b8ff" d="M316.18,-131.69C344.17,-121.76 377.83,-109.81 404.09,-100.49"/>
<polygon fill="#63b8ff" stroke="#63b8ff" points="315.04,-128.38 306.79,-135.02 317.38,-134.97 315.04,-128.38"/>
</a>
</g>
</g>
<!-- Node3 -->
<g id="Node000003" class="node">
<title>Node3</title>
<g id="a_Node000003"><a xlink:href="driver__nrf24l01__basic_8c.html" target="_top" xlink:title="driver nrf24l01 basic source file">
<polygon fill="white" stroke="#666666" points="119.5,-32 0,-32 0,0 119.5,0 119.5,-32"/>
<text xml:space="preserve" text-anchor="start" x="8" y="-18.5" font-family="Helvetica,sans-Serif" font-size="10.00">example/driver_nrf24l01</text>
<text xml:space="preserve" text-anchor="middle" x="59.75" y="-6.5" font-family="Helvetica,sans-Serif" font-size="10.00">_basic.c</text>
</a>
</g>
</g>
<!-- Node2&#45;&gt;Node3 -->
<g id="edge2_Node000002_Node000003" class="edge">
<title>Node2&#45;&gt;Node3</title>
<g id="a_edge2_Node000002_Node000003"><a xlink:title=" ">
<path fill="none" stroke="#63b8ff" d="M59.75,-56.31C59.75,-48.12 59.75,-39.38 59.75,-32.22"/>
<polygon fill="#63b8ff" stroke="#63b8ff" points="56.25,-56.18 59.75,-66.18 63.25,-56.18 56.25,-56.18"/>
</a>
</g>
</g>
<!-- Node6 -->
<g id="Node000006" class="node">
<title>Node6</title>
<g id="a_Node000006"><a xlink:href="driver__nrf24l01__register__test_8c.html" target="_top" xlink:title="driver nrf24l01 register test source file">
<polygon fill="white" stroke="#666666" points="375.38,-32 276.12,-32 276.12,0 375.38,0 375.38,-32"/>
<text xml:space="preserve" text-anchor="start" x="284.12" y="-18.5" font-family="Helvetica,sans-Serif" font-size="10.00">test/driver_nrf24l01</text>
<text xml:space="preserve" text-anchor="middle" x="325.75" y="-6.5" font-family="Helvetica,sans-Serif" font-size="10.00">_register_test.c</text>
</a>
</g>
</g>
<!-- Node5&#45;&gt;Node6 -->
<g id="edge5_Node000005_Node000006" class="edge">
<title>Node5&#45;&gt;Node6</title>
<g id="a_edge5_Node000005_Node000006"><a xlink:title=" ">
<path fill="none" stroke="#63b8ff" d="M325.75,-56.31C325.75,-48.12 325.75,-39.38 325.75,-32.22"/>
<polygon fill="#63b8ff" stroke="#63b8ff" points="322.25,-56.18 325.75,-66.18 329.25,-56.18 322.25,-56.18"/>
</a>
</g>
</g>
<!-- Node8 -->
<g id="Node000008" class="node">
<title>Node8</title>
<g id="a_Node000008"><a xlink:href="driver__nrf24l01__send__receive__test_8c.html" target="_top" xlink:title="driver nrf24l01 send receive test source file">
<polygon fill="white" stroke="#666666" points="502.25,-32 393.25,-32 393.25,0 502.25,0 502.25,-32"/>
<text xml:space="preserve" text-anchor="start" x="401.25" y="-18.5" font-family="Helvetica,sans-Serif" font-size="10.00">test/driver_nrf24l01</text>
<text xml:space="preserve" text-anchor="middle" x="447.75" y="-6.5" font-family="Helvetica,sans-Serif" font-size="10.00">_send_receive_test.c</text>
</a>
</g>
</g>
<!-- Node7&#45;&gt;Node8 -->
<g id="edge7_Node000007_Node000008" class="edge">
<title>Node7&#45;&gt;Node8</title>
<g id="a_edge7_Node000007_Node000008"><a xlink:title=" ">
<path fill="none" stroke="#63b8ff" d="M447.75,-56.31C447.75,-48.12 447.75,-39.38 447.75,-32.22"/>
<polygon fill="#63b8ff" stroke="#63b8ff" points="444.25,-56.18 447.75,-66.18 451.25,-56.18 444.25,-56.18"/>
</a>
</g>
</g>
</g>
</svg>
