<?xml version="1.0" encoding="UTF-8" standalone="no"?>
<!DOCTYPE svg PUBLIC "-//W3C//DTD SVG 1.1//EN"
 "http://www.w3.org/Graphics/SVG/1.1/DTD/svg11.dtd">
<!-- Generated by graphviz version 13.1.0 (20250701.0955)
 -->
<!-- Title: nrf24l01 driver function Pages: 1 -->
<svg width="276pt" height="290pt"
 viewBox="0.00 0.00 276.00 290.00" xmlns="http://www.w3.org/2000/svg" xmlns:xlink="http://www.w3.org/1999/xlink">
<g id="graph0" class="graph" transform="scale(1 1) rotate(0) translate(4 286)">
<title>nrf24l01 driver function</title>
<!-- Node3 -->
<g id="Node000003" class="node">
<title>Node3</title>
<g id="a_Node000003"><a xlink:href="group__nrf24l01__basic__driver.html" target="_top" xlink:title="nrf24l01 basic driver modules">
<polygon fill="white" stroke="#666666" points="261.5,-282 157.75,-282 157.75,-250 261.5,-250 261.5,-282"/>
<text xml:space="preserve" text-anchor="start" x="165.75" y="-268.5" font-family="Helvetica,sans-Serif" font-size="10.00">nrf24l01 basic driver</text>
<text xml:space="preserve" text-anchor="middle" x="209.62" y="-256.5" font-family="Helvetica,sans-Serif" font-size="10.00"> function</text>
</a>
</g>
</g>
<!-- Node1 -->
<g id="Node000001" class="node">
<title>Node1</title>
<g id="a_Node000001"><a xlink:title="nrf24l01 driver modules">
<polygon fill="#999999" stroke="#666666" points="115,-151 0,-151 0,-131 115,-131 115,-151"/>
<text xml:space="preserve" text-anchor="middle" x="57.5" y="-137.5" font-family="Helvetica,sans-Serif" font-size="10.00">nrf24l01 driver function</text>
</a>
</g>
</g>
<!-- Node1&#45;&gt;Node3 -->
<g id="edge2" class="edge">
<title>Node1&#45;&gt;Node3</title>
<path fill="none" stroke="black" d="M72.48,-160.43C89.11,-182.4 118.71,-218.1 151,-241 155.45,-244.15 160.36,-247.03 165.38,-249.62"/>
<polygon fill="black" stroke="black" points="75.45,-158.56 66.68,-152.61 69.82,-162.73 75.45,-158.56"/>
</g>
<!-- Node6 -->
<g id="Node000006" class="node">
<title>Node6</title>
<g id="a_Node000006"><a xlink:href="group__nrf24l01__example__driver.html" target="_top" xlink:title="nrf24l01 example driver modules">
<polygon fill="white" stroke="#666666" points="268.25,-232 151,-232 151,-200 268.25,-200 268.25,-232"/>
<text xml:space="preserve" text-anchor="start" x="159" y="-218.5" font-family="Helvetica,sans-Serif" font-size="10.00">nrf24l01 example driver</text>
<text xml:space="preserve" text-anchor="middle" x="209.62" y="-206.5" font-family="Helvetica,sans-Serif" font-size="10.00"> function</text>
</a>
</g>
</g>
<!-- Node1&#45;&gt;Node6 -->
<g id="edge5" class="edge">
<title>Node1&#45;&gt;Node6</title>
<path fill="none" stroke="black" d="M86.61,-157.01C104.78,-167.16 129.04,-180.33 151,-191 156.88,-193.86 163.18,-196.75 169.36,-199.51"/>
<polygon fill="black" stroke="black" points="88.44,-154.02 78,-152.18 85.01,-160.13 88.44,-154.02"/>
</g>
<!-- Node4 -->
<g id="Node000004" class="node">
<title>Node4</title>
<g id="a_Node000004"><a xlink:href="group__nrf24l01__extern__driver.html" target="_top" xlink:title="nrf24l01 extern driver modules">
<polygon fill="white" stroke="#666666" points="263.38,-182 155.88,-182 155.88,-150 263.38,-150 263.38,-182"/>
<text xml:space="preserve" text-anchor="start" x="163.88" y="-168.5" font-family="Helvetica,sans-Serif" font-size="10.00">nrf24l01 extern driver</text>
<text xml:space="preserve" text-anchor="middle" x="209.62" y="-156.5" font-family="Helvetica,sans-Serif" font-size="10.00"> function</text>
</a>
</g>
</g>
<!-- Node1&#45;&gt;Node4 -->
<g id="edge3" class="edge">
<title>Node1&#45;&gt;Node4</title>
<path fill="none" stroke="black" d="M126.3,-152.29C136.18,-153.94 146.23,-155.61 155.75,-157.19"/>
<polygon fill="black" stroke="black" points="127.19,-148.89 116.75,-150.7 126.04,-155.8 127.19,-148.89"/>
</g>
<!-- Node5 -->
<g id="Node000005" class="node">
<title>Node5</title>
<g id="a_Node000005"><a xlink:href="group__nrf24l01__interface__driver.html" target="_top" xlink:title="nrf24l01 interface driver modules">
<polygon fill="white" stroke="#666666" points="255.12,-132 164.12,-132 164.12,-100 255.12,-100 255.12,-132"/>
<text xml:space="preserve" text-anchor="start" x="172.12" y="-118.5" font-family="Helvetica,sans-Serif" font-size="10.00">nrf24l01 interface</text>
<text xml:space="preserve" text-anchor="middle" x="209.62" y="-106.5" font-family="Helvetica,sans-Serif" font-size="10.00"> driver function</text>
</a>
</g>
</g>
<!-- Node1&#45;&gt;Node5 -->
<g id="edge4" class="edge">
<title>Node1&#45;&gt;Node5</title>
<path fill="none" stroke="black" d="M126.35,-129.7C139.1,-127.58 152.13,-125.41 163.95,-123.44"/>
<polygon fill="black" stroke="black" points="126.04,-126.2 116.75,-131.3 127.19,-133.11 126.04,-126.2"/>
</g>
<!-- Node2 -->
<g id="Node000002" class="node">
<title>Node2</title>
<g id="a_Node000002"><a xlink:href="group__nrf24l01__link__driver.html" target="_top" xlink:title="nrf24l01 link driver modules">
<polygon fill="white" stroke="#666666" points="257.38,-82 161.88,-82 161.88,-50 257.38,-50 257.38,-82"/>
<text xml:space="preserve" text-anchor="start" x="169.88" y="-68.5" font-family="Helvetica,sans-Serif" font-size="10.00">nrf24l01 link driver</text>
<text xml:space="preserve" text-anchor="middle" x="209.62" y="-56.5" font-family="Helvetica,sans-Serif" font-size="10.00"> function</text>
</a>
</g>
</g>
<!-- Node1&#45;&gt;Node2 -->
<g id="edge1" class="edge">
<title>Node1&#45;&gt;Node2</title>
<path fill="none" stroke="black" d="M86.61,-124.99C104.78,-114.84 129.04,-101.67 151,-91 156.88,-88.14 163.18,-85.25 169.36,-82.49"/>
<polygon fill="black" stroke="black" points="85.01,-121.87 78,-129.82 88.44,-127.98 85.01,-121.87"/>
</g>
<!-- Node7 -->
<g id="Node000007" class="node">
<title>Node7</title>
<g id="a_Node000007"><a xlink:href="group__nrf24l01__test__driver.html" target="_top" xlink:title="nrf24l01 test driver modules">
<polygon fill="white" stroke="#666666" points="258.12,-32 161.12,-32 161.12,0 258.12,0 258.12,-32"/>
<text xml:space="preserve" text-anchor="start" x="169.12" y="-18.5" font-family="Helvetica,sans-Serif" font-size="10.00">nrf24l01 test driver</text>
<text xml:space="preserve" text-anchor="middle" x="209.62" y="-6.5" font-family="Helvetica,sans-Serif" font-size="10.00"> function</text>
</a>
</g>
</g>
<!-- Node1&#45;&gt;Node7 -->
<g id="edge6" class="edge">
<title>Node1&#45;&gt;Node7</title>
<path fill="none" stroke="black" d="M72.48,-121.57C89.11,-99.6 118.71,-63.9 151,-41 155.45,-37.85 160.36,-34.97 165.38,-32.38"/>
<polygon fill="black" stroke="black" points="69.82,-119.27 66.68,-129.39 75.45,-123.44 69.82,-119.27"/>
</g>
</g>
</svg>
