<?xml version="1.0" encoding="UTF-8" standalone="no"?>
<!DOCTYPE svg PUBLIC "-//W3C//DTD SVG 1.1//EN"
 "http://www.w3.org/Graphics/SVG/1.1/DTD/svg11.dtd">
<!-- Generated by graphviz version 13.1.0 (20250701.0955)
 -->
<!-- Title: nrf24l01_basic_init Pages: 1 -->
<svg width="313pt" height="2058pt"
 viewBox="0.00 0.00 313.00 2058.00" xmlns="http://www.w3.org/2000/svg" xmlns:xlink="http://www.w3.org/1999/xlink">
<g id="graph0" class="graph" transform="scale(1 1) rotate(0) translate(4 2054)">
<title>nrf24l01_basic_init</title>
<!-- Node1 -->
<g id="Node000001" class="node">
<title>Node1</title>
<g id="a_Node000001"><a xlink:title="basic example init">
<polygon fill="#999999" stroke="#666666" points="97,-1062 0,-1062 0,-1042 97,-1042 97,-1062"/>
<text xml:space="preserve" text-anchor="middle" x="48.5" y="-1048.5" font-family="Helvetica,sans-Serif" font-size="10.00">nrf24l01_basic_init</text>
</a>
</g>
</g>
<!-- Node2 -->
<g id="Node000002" class="node">
<title>Node2</title>
<g id="a_Node000002"><a xlink:href="group__nrf24l01__basic__driver.html#ga99294702a4d1ba8db445bdb6bb09cd3d" target="_top" xlink:title="convert the delay to the register raw data">
<polygon fill="white" stroke="#666666" points="285.5,-2050 152.5,-2050 152.5,-2018 285.5,-2018 285.5,-2050"/>
<text xml:space="preserve" text-anchor="start" x="160.5" y="-2036.5" font-family="Helvetica,sans-Serif" font-size="10.00">nrf24l01_auto_retransmit</text>
<text xml:space="preserve" text-anchor="middle" x="219" y="-2024.5" font-family="Helvetica,sans-Serif" font-size="10.00">_delay_convert_to_register</text>
</a>
</g>
</g>
<!-- Node1&#45;&gt;Node2 -->
<g id="edge1_Node000001_Node000002" class="edge">
<title>Node1&#45;&gt;Node2</title>
<g id="a_edge1_Node000001_Node000002"><a xlink:title=" ">
<path fill="none" stroke="#63b8ff" d="M49.71,-1062.45C51.76,-1161.43 69.75,-1931.72 133,-2009 135.74,-2012.35 138.91,-2015.27 142.38,-2017.81"/>
<polygon fill="#63b8ff" stroke="#63b8ff" points="140.49,-2020.75 150.86,-2022.89 144.09,-2014.75 140.49,-2020.75"/>
</a>
</g>
</g>
<!-- Node3 -->
<g id="Node000003" class="node">
<title>Node3</title>
<g id="a_Node000003"><a xlink:href="group__nrf24l01__basic__driver.html#ga880de829b9fed577fc730a84d58c8f71" target="_top" xlink:title="clear the interrupt status">
<polygon fill="white" stroke="#666666" points="277.62,-2000 160.38,-2000 160.38,-1980 277.62,-1980 277.62,-2000"/>
<text xml:space="preserve" text-anchor="middle" x="219" y="-1986.5" font-family="Helvetica,sans-Serif" font-size="10.00">nrf24l01_clear_interrupt</text>
</a>
</g>
</g>
<!-- Node1&#45;&gt;Node3 -->
<g id="edge2_Node000001_Node000003" class="edge">
<title>Node1&#45;&gt;Node3</title>
<g id="a_edge2_Node000001_Node000003"><a xlink:title=" ">
<path fill="none" stroke="#63b8ff" d="M49.71,-1062.36C51.79,-1158.9 69.76,-1899.01 133,-1971 137.65,-1976.29 143.42,-1980.29 149.76,-1983.28"/>
<polygon fill="#63b8ff" stroke="#63b8ff" points="148.08,-1986.39 158.67,-1986.67 150.57,-1979.85 148.08,-1986.39"/>
</a>
</g>
</g>
<!-- Node4 -->
<g id="Node000004" class="node">
<title>Node4</title>
<g id="a_Node000004"><a xlink:href="group__nrf24l01__basic__driver.html#gaf21360d88844722c8c65f5b21cff9d48" target="_top" xlink:title="close the chip">
<polygon fill="white" stroke="#666666" points="258.5,-1962 179.5,-1962 179.5,-1942 258.5,-1942 258.5,-1962"/>
<text xml:space="preserve" text-anchor="middle" x="219" y="-1948.5" font-family="Helvetica,sans-Serif" font-size="10.00">nrf24l01_deinit</text>
</a>
</g>
</g>
<!-- Node1&#45;&gt;Node4 -->
<g id="edge3_Node000001_Node000004" class="edge">
<title>Node1&#45;&gt;Node4</title>
<g id="a_edge3_Node000001_Node000004"><a xlink:title=" ">
<path fill="none" stroke="#63b8ff" d="M49.75,-1062.23C52.16,-1155.98 72.28,-1864.15 133,-1933 141.91,-1943.1 154.9,-1948.47 168.07,-1951.18"/>
<polygon fill="#63b8ff" stroke="#63b8ff" points="167.17,-1954.59 177.58,-1952.65 168.23,-1947.67 167.17,-1954.59"/>
</a>
</g>
</g>
<!-- Node5 -->
<g id="Node000005" class="node">
<title>Node5</title>
<g id="a_Node000005"><a xlink:href="group__nrf24l01__basic__driver.html#gaefaad84b659c2dc1812b6460fdb8b8ed" target="_top" xlink:title="flush rx">
<polygon fill="white" stroke="#666666" points="264.12,-1924 173.88,-1924 173.88,-1904 264.12,-1904 264.12,-1924"/>
<text xml:space="preserve" text-anchor="middle" x="219" y="-1910.5" font-family="Helvetica,sans-Serif" font-size="10.00">nrf24l01_flush_rx</text>
</a>
</g>
</g>
<!-- Node1&#45;&gt;Node5 -->
<g id="edge4_Node000001_Node000005" class="edge">
<title>Node1&#45;&gt;Node5</title>
<g id="a_edge4_Node000001_Node000005"><a xlink:title=" ">
<path fill="none" stroke="#63b8ff" d="M49.8,-1062.36C52.58,-1154.34 74.86,-1829.35 133,-1895 140.59,-1903.57 151.14,-1908.74 162.22,-1911.76"/>
<polygon fill="#63b8ff" stroke="#63b8ff" points="161.4,-1915.16 171.91,-1913.8 162.84,-1908.31 161.4,-1915.16"/>
</a>
</g>
</g>
<!-- Node6 -->
<g id="Node000006" class="node">
<title>Node6</title>
<g id="a_Node000006"><a xlink:href="group__nrf24l01__basic__driver.html#ga0948e787585664c0283592e5bd0bba0b" target="_top" xlink:title="flush tx">
<polygon fill="white" stroke="#666666" points="264.12,-1886 173.88,-1886 173.88,-1866 264.12,-1866 264.12,-1886"/>
<text xml:space="preserve" text-anchor="middle" x="219" y="-1872.5" font-family="Helvetica,sans-Serif" font-size="10.00">nrf24l01_flush_tx</text>
</a>
</g>
</g>
<!-- Node1&#45;&gt;Node6 -->
<g id="edge5_Node000001_Node000006" class="edge">
<title>Node1&#45;&gt;Node6</title>
<g id="a_edge5_Node000001_Node000006"><a xlink:title=" ">
<path fill="none" stroke="#63b8ff" d="M49.86,-1062.45C53.01,-1152.44 77.43,-1794.54 133,-1857 140.61,-1865.56 151.16,-1870.71 162.25,-1873.73"/>
<polygon fill="#63b8ff" stroke="#63b8ff" points="161.43,-1877.14 171.94,-1875.77 162.87,-1870.29 161.43,-1877.14"/>
</a>
</g>
</g>
<!-- Node7 -->
<g id="Node000007" class="node">
<title>Node7</title>
<g id="a_Node000007"><a xlink:href="group__nrf24l01__basic__driver.html#gad4de64dc1b77954fdaa73b7aea4c5a4f" target="_top" xlink:title="initialize the chip">
<polygon fill="white" stroke="#666666" points="253.25,-1848 184.75,-1848 184.75,-1828 253.25,-1828 253.25,-1848"/>
<text xml:space="preserve" text-anchor="middle" x="219" y="-1834.5" font-family="Helvetica,sans-Serif" font-size="10.00">nrf24l01_init</text>
</a>
</g>
</g>
<!-- Node1&#45;&gt;Node7 -->
<g id="edge6_Node000001_Node000007" class="edge">
<title>Node1&#45;&gt;Node7</title>
<g id="a_edge6_Node000001_Node000007"><a xlink:title=" ">
<path fill="none" stroke="#63b8ff" d="M49.9,-1062.23C53.41,-1149 79.93,-1759.66 133,-1819 143.12,-1830.32 158.38,-1835.68 173.19,-1838.02"/>
<polygon fill="#63b8ff" stroke="#63b8ff" points="172.5,-1841.46 182.83,-1839.1 173.28,-1834.51 172.5,-1841.46"/>
</a>
</g>
</g>
<!-- Node8 -->
<g id="Node000008" class="node">
<title>Node8</title>
<g id="a_Node000008"><a xlink:href="group__nrf24l01__interface__driver.html#ga91998e27bfdcebdf63792bfa66839e68" target="_top" xlink:title="interface print format data">
<polygon fill="white" stroke="#666666" points="265.62,-1810 172.38,-1810 172.38,-1778 265.62,-1778 265.62,-1810"/>
<text xml:space="preserve" text-anchor="start" x="180.38" y="-1796.5" font-family="Helvetica,sans-Serif" font-size="10.00">nrf24l01_interface</text>
<text xml:space="preserve" text-anchor="middle" x="219" y="-1784.5" font-family="Helvetica,sans-Serif" font-size="10.00">_debug_print</text>
</a>
</g>
</g>
<!-- Node1&#45;&gt;Node8 -->
<g id="edge7_Node000001_Node000008" class="edge">
<title>Node1&#45;&gt;Node8</title>
<g id="a_edge7_Node000001_Node000008"><a xlink:title=" ">
<path fill="none" stroke="#63b8ff" d="M50.02,-1062.32C54.33,-1146.05 85.15,-1712.22 133,-1769 140.29,-1777.64 150.4,-1783.39 161.11,-1787.18"/>
<polygon fill="#63b8ff" stroke="#63b8ff" points="159.9,-1790.47 170.48,-1789.93 161.87,-1783.76 159.9,-1790.47"/>
</a>
</g>
</g>
<!-- Node9 -->
<g id="Node000009" class="node">
<title>Node9</title>
<g id="a_Node000009"><a xlink:href="group__nrf24l01__interface__driver.html#ga5d9c2e24aac8b63edcba5de9b7b7db63" target="_top" xlink:title="interface delay ms">
<polygon fill="white" stroke="#666666" points="265.62,-1760 172.38,-1760 172.38,-1728 265.62,-1728 265.62,-1760"/>
<text xml:space="preserve" text-anchor="start" x="180.38" y="-1746.5" font-family="Helvetica,sans-Serif" font-size="10.00">nrf24l01_interface</text>
<text xml:space="preserve" text-anchor="middle" x="219" y="-1734.5" font-family="Helvetica,sans-Serif" font-size="10.00">_delay_ms</text>
</a>
</g>
</g>
<!-- Node1&#45;&gt;Node9 -->
<g id="edge8_Node000001_Node000009" class="edge">
<title>Node1&#45;&gt;Node9</title>
<g id="a_edge8_Node000001_Node000009"><a xlink:title=" ">
<path fill="none" stroke="#63b8ff" d="M49.31,-1062.13C48.08,-1137.78 43.99,-1614.31 133,-1719 140.32,-1727.61 150.45,-1733.34 161.16,-1737.13"/>
<polygon fill="#63b8ff" stroke="#63b8ff" points="159.96,-1740.43 170.54,-1739.88 161.93,-1733.71 159.96,-1740.43"/>
</a>
</g>
</g>
<!-- Node10 -->
<g id="Node000010" class="node">
<title>Node10</title>
<g id="a_Node000010"><a xlink:href="group__nrf24l01__interface__driver.html#gaa76fc8f554e7a87e2d08b582184d8896" target="_top" xlink:title="interface gpio deinit">
<polygon fill="white" stroke="#666666" points="265.62,-1710 172.38,-1710 172.38,-1678 265.62,-1678 265.62,-1710"/>
<text xml:space="preserve" text-anchor="start" x="180.38" y="-1696.5" font-family="Helvetica,sans-Serif" font-size="10.00">nrf24l01_interface</text>
<text xml:space="preserve" text-anchor="middle" x="219" y="-1684.5" font-family="Helvetica,sans-Serif" font-size="10.00">_gpio_deinit</text>
</a>
</g>
</g>
<!-- Node1&#45;&gt;Node10 -->
<g id="edge9_Node000001_Node000010" class="edge">
<title>Node1&#45;&gt;Node10</title>
<g id="a_edge9_Node000001_Node000010"><a xlink:title=" ">
<path fill="none" stroke="#63b8ff" d="M49.42,-1062.29C49.07,-1135.14 50.42,-1572.85 133,-1669 140.37,-1677.58 150.51,-1683.29 161.23,-1687.08"/>
<polygon fill="#63b8ff" stroke="#63b8ff" points="160.02,-1690.37 170.6,-1689.83 161.99,-1683.65 160.02,-1690.37"/>
</a>
</g>
</g>
<!-- Node11 -->
<g id="Node000011" class="node">
<title>Node11</title>
<g id="a_Node000011"><a xlink:href="group__nrf24l01__interface__driver.html#gaafb59ccf2792ad0e0ab3c4196e778c53" target="_top" xlink:title="interface gpio init">
<polygon fill="white" stroke="#666666" points="265.62,-1660 172.38,-1660 172.38,-1628 265.62,-1628 265.62,-1660"/>
<text xml:space="preserve" text-anchor="start" x="180.38" y="-1646.5" font-family="Helvetica,sans-Serif" font-size="10.00">nrf24l01_interface</text>
<text xml:space="preserve" text-anchor="middle" x="219" y="-1634.5" font-family="Helvetica,sans-Serif" font-size="10.00">_gpio_init</text>
</a>
</g>
</g>
<!-- Node1&#45;&gt;Node11 -->
<g id="edge10_Node000001_Node000011" class="edge">
<title>Node1&#45;&gt;Node11</title>
<g id="a_edge10_Node000001_Node000011"><a xlink:title=" ">
<path fill="none" stroke="#63b8ff" d="M49.56,-1062.34C50.14,-1131.88 56.8,-1531.32 133,-1619 140.42,-1627.53 150.58,-1633.23 161.3,-1637.01"/>
<polygon fill="#63b8ff" stroke="#63b8ff" points="160.1,-1640.3 170.68,-1639.76 162.07,-1633.59 160.1,-1640.3"/>
</a>
</g>
</g>
<!-- Node12 -->
<g id="Node000012" class="node">
<title>Node12</title>
<g id="a_Node000012"><a xlink:href="group__nrf24l01__interface__driver.html#gaee1991f1755c5750ce57ad09249459db" target="_top" xlink:title="interface gpio write">
<polygon fill="white" stroke="#666666" points="265.62,-1610 172.38,-1610 172.38,-1578 265.62,-1578 265.62,-1610"/>
<text xml:space="preserve" text-anchor="start" x="180.38" y="-1596.5" font-family="Helvetica,sans-Serif" font-size="10.00">nrf24l01_interface</text>
<text xml:space="preserve" text-anchor="middle" x="219" y="-1584.5" font-family="Helvetica,sans-Serif" font-size="10.00">_gpio_write</text>
</a>
</g>
</g>
<!-- Node1&#45;&gt;Node12 -->
<g id="edge11_Node000001_Node000012" class="edge">
<title>Node1&#45;&gt;Node12</title>
<g id="a_edge11_Node000001_Node000012"><a xlink:title=" ">
<path fill="none" stroke="#63b8ff" d="M49.71,-1062.27C51.3,-1128 63.11,-1489.71 133,-1569 140.48,-1577.48 150.67,-1583.15 161.39,-1586.93"/>
<polygon fill="#63b8ff" stroke="#63b8ff" points="160.19,-1590.22 170.77,-1589.68 162.16,-1583.51 160.19,-1590.22"/>
</a>
</g>
</g>
<!-- Node13 -->
<g id="Node000013" class="node">
<title>Node13</title>
<g id="a_Node000013"><a xlink:href="group__nrf24l01__interface__driver.html#ga3ca52533ea11f52d8421fcefa424f193" target="_top" xlink:title="interface spi bus deinit">
<polygon fill="white" stroke="#666666" points="265.62,-1560 172.38,-1560 172.38,-1528 265.62,-1528 265.62,-1560"/>
<text xml:space="preserve" text-anchor="start" x="180.38" y="-1546.5" font-family="Helvetica,sans-Serif" font-size="10.00">nrf24l01_interface</text>
<text xml:space="preserve" text-anchor="middle" x="219" y="-1534.5" font-family="Helvetica,sans-Serif" font-size="10.00">_spi_deinit</text>
</a>
</g>
</g>
<!-- Node1&#45;&gt;Node13 -->
<g id="edge12_Node000001_Node000013" class="edge">
<title>Node1&#45;&gt;Node13</title>
<g id="a_edge12_Node000001_Node000013"><a xlink:title=" ">
<path fill="none" stroke="#63b8ff" d="M49.92,-1062.46C52.61,-1124.92 69.5,-1448.17 133,-1519 140.47,-1527.33 150.56,-1532.95 161.17,-1536.72"/>
<polygon fill="#63b8ff" stroke="#63b8ff" points="159.85,-1539.98 170.44,-1539.47 161.85,-1533.27 159.85,-1539.98"/>
</a>
</g>
</g>
<!-- Node14 -->
<g id="Node000014" class="node">
<title>Node14</title>
<g id="a_Node000014"><a xlink:href="group__nrf24l01__interface__driver.html#gad9129dcaa84f7c5685c70d8751b4be99" target="_top" xlink:title="interface spi bus init">
<polygon fill="white" stroke="#666666" points="265.62,-1510 172.38,-1510 172.38,-1478 265.62,-1478 265.62,-1510"/>
<text xml:space="preserve" text-anchor="start" x="180.38" y="-1496.5" font-family="Helvetica,sans-Serif" font-size="10.00">nrf24l01_interface</text>
<text xml:space="preserve" text-anchor="middle" x="219" y="-1484.5" font-family="Helvetica,sans-Serif" font-size="10.00">_spi_init</text>
</a>
</g>
</g>
<!-- Node1&#45;&gt;Node14 -->
<g id="edge13_Node000001_Node000014" class="edge">
<title>Node1&#45;&gt;Node14</title>
<g id="a_edge13_Node000001_Node000014"><a xlink:title=" ">
<path fill="none" stroke="#63b8ff" d="M50.16,-1062.47C54.05,-1120.92 75.8,-1406.5 133,-1469 140.56,-1477.25 150.68,-1482.84 161.31,-1486.6"/>
<polygon fill="#63b8ff" stroke="#63b8ff" points="159.99,-1489.86 170.57,-1489.35 161.98,-1483.15 159.99,-1489.86"/>
</a>
</g>
</g>
<!-- Node15 -->
<g id="Node000015" class="node">
<title>Node15</title>
<g id="a_Node000015"><a xlink:href="group__nrf24l01__interface__driver.html#ga09dc443ef8214d5471dafe7987c23b8a" target="_top" xlink:title="interface spi bus read">
<polygon fill="white" stroke="#666666" points="265.62,-1460 172.38,-1460 172.38,-1428 265.62,-1428 265.62,-1460"/>
<text xml:space="preserve" text-anchor="start" x="180.38" y="-1446.5" font-family="Helvetica,sans-Serif" font-size="10.00">nrf24l01_interface</text>
<text xml:space="preserve" text-anchor="middle" x="219" y="-1434.5" font-family="Helvetica,sans-Serif" font-size="10.00">_spi_read</text>
</a>
</g>
</g>
<!-- Node1&#45;&gt;Node15 -->
<g id="edge14_Node000001_Node000015" class="edge">
<title>Node1&#45;&gt;Node15</title>
<g id="a_edge14_Node000001_Node000015"><a xlink:title=" ">
<path fill="none" stroke="#63b8ff" d="M50.45,-1062.26C55.61,-1116.02 81.99,-1364.71 133,-1419 140.66,-1427.16 150.83,-1432.69 161.47,-1436.45"/>
<polygon fill="#63b8ff" stroke="#63b8ff" points="160.15,-1439.71 170.73,-1439.2 162.15,-1433 160.15,-1439.71"/>
</a>
</g>
</g>
<!-- Node16 -->
<g id="Node000016" class="node">
<title>Node16</title>
<g id="a_Node000016"><a xlink:href="group__nrf24l01__interface__driver.html#gad9ceabea87109c6ba86f6776a7062ba8" target="_top" xlink:title="interface spi bus write">
<polygon fill="white" stroke="#666666" points="265.62,-1410 172.38,-1410 172.38,-1378 265.62,-1378 265.62,-1410"/>
<text xml:space="preserve" text-anchor="start" x="180.38" y="-1396.5" font-family="Helvetica,sans-Serif" font-size="10.00">nrf24l01_interface</text>
<text xml:space="preserve" text-anchor="middle" x="219" y="-1384.5" font-family="Helvetica,sans-Serif" font-size="10.00">_spi_write</text>
</a>
</g>
</g>
<!-- Node1&#45;&gt;Node16 -->
<g id="edge15_Node000001_Node000016" class="edge">
<title>Node1&#45;&gt;Node16</title>
<g id="a_edge15_Node000001_Node000016"><a xlink:title=" ">
<path fill="none" stroke="#63b8ff" d="M50.87,-1062.47C57.55,-1112.07 88.28,-1322.98 133,-1369 140.64,-1376.86 150.61,-1382.28 161.02,-1386.01"/>
<polygon fill="#63b8ff" stroke="#63b8ff" points="159.92,-1389.34 170.51,-1388.88 161.95,-1382.63 159.92,-1389.34"/>
</a>
</g>
</g>
<!-- Node17 -->
<g id="Node000017" class="node">
<title>Node17</title>
<g id="a_Node000017"><a xlink:href="group__nrf24l01__basic__driver.html#gab267d4890252f71ebe1f3c53de4869c2" target="_top" xlink:title="enable or disable the chip">
<polygon fill="white" stroke="#666666" points="269.38,-1360 168.62,-1360 168.62,-1340 269.38,-1340 269.38,-1360"/>
<text xml:space="preserve" text-anchor="middle" x="219" y="-1346.5" font-family="Helvetica,sans-Serif" font-size="10.00">nrf24l01_set_active</text>
</a>
</g>
</g>
<!-- Node1&#45;&gt;Node17 -->
<g id="edge16_Node000001_Node000017" class="edge">
<title>Node1&#45;&gt;Node17</title>
<g id="a_edge16_Node000001_Node000017"><a xlink:title=" ">
<path fill="none" stroke="#63b8ff" d="M49.17,-1062.22C48.43,-1102.94 51.42,-1255.01 133,-1331 139.84,-1337.37 148.34,-1341.78 157.3,-1344.79"/>
<polygon fill="#63b8ff" stroke="#63b8ff" points="156.33,-1348.16 166.9,-1347.42 158.18,-1341.4 156.33,-1348.16"/>
</a>
</g>
</g>
<!-- Node18 -->
<g id="Node000018" class="node">
<title>Node18</title>
<g id="a_Node000018"><a xlink:href="group__nrf24l01__basic__driver.html#gaaaf2630fff7c441851f6abf6c6d2d06f" target="_top" xlink:title="set the address width">
<polygon fill="white" stroke="#666666" points="273.5,-1322 164.5,-1322 164.5,-1290 273.5,-1290 273.5,-1322"/>
<text xml:space="preserve" text-anchor="start" x="172.5" y="-1308.5" font-family="Helvetica,sans-Serif" font-size="10.00">nrf24l01_set_address</text>
<text xml:space="preserve" text-anchor="middle" x="219" y="-1296.5" font-family="Helvetica,sans-Serif" font-size="10.00">_width</text>
</a>
</g>
</g>
<!-- Node1&#45;&gt;Node18 -->
<g id="edge17_Node000001_Node000018" class="edge">
<title>Node1&#45;&gt;Node18</title>
<g id="a_edge17_Node000001_Node000018"><a xlink:title=" ">
<path fill="none" stroke="#63b8ff" d="M50.1,-1062.44C52.73,-1098.43 66.34,-1218.45 133,-1281 138.94,-1286.57 146.05,-1290.91 153.61,-1294.28"/>
<polygon fill="#63b8ff" stroke="#63b8ff" points="152.11,-1297.46 162.7,-1297.77 154.62,-1290.92 152.11,-1297.46"/>
</a>
</g>
</g>
<!-- Node19 -->
<g id="Node000019" class="node">
<title>Node19</title>
<g id="a_Node000019"><a xlink:href="group__nrf24l01__basic__driver.html#ga828178ab257acd0b00ddacf804785ce3" target="_top" xlink:title="enable or disable auto acknowledgment">
<polygon fill="white" stroke="#666666" points="305,-1272 133,-1272 133,-1252 305,-1252 305,-1272"/>
<text xml:space="preserve" text-anchor="middle" x="219" y="-1258.5" font-family="Helvetica,sans-Serif" font-size="10.00">nrf24l01_set_auto_acknowledgment</text>
</a>
</g>
</g>
<!-- Node1&#45;&gt;Node19 -->
<g id="edge18_Node000001_Node000019" class="edge">
<title>Node1&#45;&gt;Node19</title>
<g id="a_edge18_Node000001_Node000019"><a xlink:title=" ">
<path fill="none" stroke="#63b8ff" d="M50.74,-1062.21C55.21,-1094.31 73.51,-1193.98 133,-1243 134.31,-1244.08 135.67,-1245.11 137.08,-1246.07"/>
<polygon fill="#63b8ff" stroke="#63b8ff" points="135.15,-1249 145.56,-1250.94 138.63,-1242.93 135.15,-1249"/>
</a>
</g>
</g>
<!-- Node20 -->
<g id="Node000020" class="node">
<title>Node20</title>
<g id="a_Node000020"><a xlink:href="group__nrf24l01__basic__driver.html#ga4061caeb1e384042cc8f82719ad33b2c" target="_top" xlink:title="set the auto retransmit count">
<polygon fill="white" stroke="#666666" points="290,-1234 148,-1234 148,-1202 290,-1202 290,-1234"/>
<text xml:space="preserve" text-anchor="start" x="156" y="-1220.5" font-family="Helvetica,sans-Serif" font-size="10.00">nrf24l01_set_auto_retransmit</text>
<text xml:space="preserve" text-anchor="middle" x="219" y="-1208.5" font-family="Helvetica,sans-Serif" font-size="10.00">_count</text>
</a>
</g>
</g>
<!-- Node1&#45;&gt;Node20 -->
<g id="edge19_Node000001_Node000020" class="edge">
<title>Node1&#45;&gt;Node20</title>
<g id="a_edge19_Node000001_Node000020"><a xlink:title=" ">
<path fill="none" stroke="#63b8ff" d="M52.64,-1062.29C61.11,-1088.32 86.97,-1157.19 133,-1193 134.54,-1194.2 136.14,-1195.34 137.79,-1196.43"/>
<polygon fill="#63b8ff" stroke="#63b8ff" points="135.94,-1199.41 146.36,-1201.34 139.42,-1193.33 135.94,-1199.41"/>
</a>
</g>
</g>
<!-- Node21 -->
<g id="Node000021" class="node">
<title>Node21</title>
<g id="a_Node000021"><a xlink:href="group__nrf24l01__basic__driver.html#gadf14518f7405ec576dfab28ecaf54478" target="_top" xlink:title="set the auto retransmit delay">
<polygon fill="white" stroke="#666666" points="290,-1184 148,-1184 148,-1152 290,-1152 290,-1184"/>
<text xml:space="preserve" text-anchor="start" x="156" y="-1170.5" font-family="Helvetica,sans-Serif" font-size="10.00">nrf24l01_set_auto_retransmit</text>
<text xml:space="preserve" text-anchor="middle" x="219" y="-1158.5" font-family="Helvetica,sans-Serif" font-size="10.00">_delay</text>
</a>
</g>
</g>
<!-- Node1&#45;&gt;Node21 -->
<g id="edge20_Node000001_Node000021" class="edge">
<title>Node1&#45;&gt;Node21</title>
<g id="a_edge20_Node000001_Node000021"><a xlink:title=" ">
<path fill="none" stroke="#63b8ff" d="M56.19,-1062.43C68.87,-1081.35 98.24,-1121.34 133,-1143 135.12,-1144.32 137.32,-1145.58 139.57,-1146.77"/>
<polygon fill="#63b8ff" stroke="#63b8ff" points="137.83,-1149.82 148.36,-1150.94 140.83,-1143.49 137.83,-1149.82"/>
</a>
</g>
</g>
<!-- Node22 -->
<g id="Node000022" class="node">
<title>Node22</title>
<g id="a_Node000022"><a xlink:href="group__nrf24l01__basic__driver.html#ga7734c09989b92aa95aff77e837970afa" target="_top" xlink:title="set the channel frequency">
<polygon fill="white" stroke="#666666" points="273.12,-1134 164.88,-1134 164.88,-1102 273.12,-1102 273.12,-1134"/>
<text xml:space="preserve" text-anchor="start" x="172.88" y="-1120.5" font-family="Helvetica,sans-Serif" font-size="10.00">nrf24l01_set_channel</text>
<text xml:space="preserve" text-anchor="middle" x="219" y="-1108.5" font-family="Helvetica,sans-Serif" font-size="10.00">_frequency</text>
</a>
</g>
</g>
<!-- Node1&#45;&gt;Node22 -->
<g id="edge21_Node000001_Node000022" class="edge">
<title>Node1&#45;&gt;Node22</title>
<g id="a_edge21_Node000001_Node000022"><a xlink:title=" ">
<path fill="none" stroke="#63b8ff" d="M68.32,-1062.39C84.98,-1071.31 110.12,-1084.09 133,-1093 139.58,-1095.56 146.54,-1098.01 153.53,-1100.3"/>
<polygon fill="#63b8ff" stroke="#63b8ff" points="152.45,-1103.63 163.04,-1103.31 154.56,-1096.96 152.45,-1103.63"/>
</a>
</g>
</g>
<!-- Node23 -->
<g id="Node000023" class="node">
<title>Node23</title>
<g id="a_Node000023"><a xlink:href="group__nrf24l01__basic__driver.html#ga52cc83e6d12c72e4add0ab5c7ef2cf56" target="_top" xlink:title="enable or disable configure">
<polygon fill="white" stroke="#666666" points="269.38,-1084 168.62,-1084 168.62,-1064 269.38,-1064 269.38,-1084"/>
<text xml:space="preserve" text-anchor="middle" x="219" y="-1070.5" font-family="Helvetica,sans-Serif" font-size="10.00">nrf24l01_set_config</text>
</a>
</g>
</g>
<!-- Node1&#45;&gt;Node23 -->
<g id="edge22_Node000001_Node000023" class="edge">
<title>Node1&#45;&gt;Node23</title>
<g id="a_edge22_Node000001_Node000023"><a xlink:title=" ">
<path fill="none" stroke="#63b8ff" d="M97.33,-1058.25C115.88,-1060.67 137.34,-1063.47 156.97,-1066.03"/>
<polygon fill="#63b8ff" stroke="#63b8ff" points="156.41,-1069.49 166.78,-1067.31 157.32,-1062.55 156.41,-1069.49"/>
</a>
</g>
</g>
<!-- Node24 -->
<g id="Node000024" class="node">
<title>Node24</title>
<g id="a_Node000024"><a xlink:href="group__nrf24l01__basic__driver.html#gad0a72269447d941dabcf49fb0784453f" target="_top" xlink:title="enable or disable continuous carrier transmit">
<polygon fill="white" stroke="#666666" points="279.88,-1046 158.12,-1046 158.12,-1014 279.88,-1014 279.88,-1046"/>
<text xml:space="preserve" text-anchor="start" x="166.12" y="-1032.5" font-family="Helvetica,sans-Serif" font-size="10.00">nrf24l01_set_continuous</text>
<text xml:space="preserve" text-anchor="middle" x="219" y="-1020.5" font-family="Helvetica,sans-Serif" font-size="10.00">_carrier_transmit</text>
</a>
</g>
</g>
<!-- Node1&#45;&gt;Node24 -->
<g id="edge23_Node000001_Node000024" class="edge">
<title>Node1&#45;&gt;Node24</title>
<g id="a_edge23_Node000001_Node000024"><a xlink:title=" ">
<path fill="none" stroke="#63b8ff" d="M97.33,-1045.75C112.59,-1043.76 129.82,-1041.51 146.39,-1039.35"/>
<polygon fill="#63b8ff" stroke="#63b8ff" points="146.75,-1042.83 156.21,-1038.07 145.84,-1035.89 146.75,-1042.83"/>
</a>
</g>
</g>
<!-- Node25 -->
<g id="Node000025" class="node">
<title>Node25</title>
<g id="a_Node000025"><a xlink:href="group__nrf24l01__basic__driver.html#gaf2779a98beff1aa0564e153d3227d451" target="_top" xlink:title="set the data rate">
<polygon fill="white" stroke="#666666" points="276.5,-996 161.5,-996 161.5,-976 276.5,-976 276.5,-996"/>
<text xml:space="preserve" text-anchor="middle" x="219" y="-982.5" font-family="Helvetica,sans-Serif" font-size="10.00">nrf24l01_set_data_rate</text>
</a>
</g>
</g>
<!-- Node1&#45;&gt;Node25 -->
<g id="edge24_Node000001_Node000025" class="edge">
<title>Node1&#45;&gt;Node25</title>
<g id="a_edge24_Node000001_Node000025"><a xlink:title=" ">
<path fill="none" stroke="#63b8ff" d="M64.83,-1041.55C81.08,-1030.91 107.84,-1014.65 133,-1005 138.56,-1002.87 144.42,-1000.94 150.36,-999.21"/>
<polygon fill="#63b8ff" stroke="#63b8ff" points="150.88,-1002.69 159.62,-996.69 149.05,-995.94 150.88,-1002.69"/>
</a>
</g>
</g>
<!-- Node26 -->
<g id="Node000026" class="node">
<title>Node26</title>
<g id="a_Node000026"><a xlink:href="group__nrf24l01__basic__driver.html#ga13fb645f10bb4e270f2ee10ad0a5ee99" target="_top" xlink:title="enable or disable the dynamic payload">
<polygon fill="white" stroke="#666666" points="274.62,-958 163.38,-958 163.38,-926 274.62,-926 274.62,-958"/>
<text xml:space="preserve" text-anchor="start" x="171.38" y="-944.5" font-family="Helvetica,sans-Serif" font-size="10.00">nrf24l01_set_dynamic</text>
<text xml:space="preserve" text-anchor="middle" x="219" y="-932.5" font-family="Helvetica,sans-Serif" font-size="10.00">_payload</text>
</a>
</g>
</g>
<!-- Node1&#45;&gt;Node26 -->
<g id="edge25_Node000001_Node000026" class="edge">
<title>Node1&#45;&gt;Node26</title>
<g id="a_edge25_Node000001_Node000026"><a xlink:title=" ">
<path fill="none" stroke="#63b8ff" d="M56.77,-1041.71C69.94,-1023.85 99.47,-987.11 133,-967 139.06,-963.37 145.68,-960.23 152.47,-957.53"/>
<polygon fill="#63b8ff" stroke="#63b8ff" points="153.58,-960.85 161.79,-954.16 151.2,-954.27 153.58,-960.85"/>
</a>
</g>
</g>
<!-- Node27 -->
<g id="Node000027" class="node">
<title>Node27</title>
<g id="a_Node000027"><a xlink:href="group__nrf24l01__basic__driver.html#gad59aeea0758224b5a7df79786cd60638" target="_top" xlink:title="enable or disable force pll lock signal">
<polygon fill="white" stroke="#666666" points="267.12,-908 170.88,-908 170.88,-876 267.12,-876 267.12,-908"/>
<text xml:space="preserve" text-anchor="start" x="178.88" y="-894.5" font-family="Helvetica,sans-Serif" font-size="10.00">nrf24l01_set_force</text>
<text xml:space="preserve" text-anchor="middle" x="219" y="-882.5" font-family="Helvetica,sans-Serif" font-size="10.00">_pll_lock_signal</text>
</a>
</g>
</g>
<!-- Node1&#45;&gt;Node27 -->
<g id="edge26_Node000001_Node000027" class="edge">
<title>Node1&#45;&gt;Node27</title>
<g id="a_edge26_Node000001_Node000027"><a xlink:title=" ">
<path fill="none" stroke="#63b8ff" d="M52.9,-1041.77C61.82,-1016.57 88.29,-951.09 133,-917 140.91,-910.97 150.25,-906.39 159.79,-902.91"/>
<polygon fill="#63b8ff" stroke="#63b8ff" points="160.69,-906.3 169.13,-899.9 158.54,-899.64 160.69,-906.3"/>
</a>
</g>
</g>
<!-- Node28 -->
<g id="Node000028" class="node">
<title>Node28</title>
<g id="a_Node000028"><a xlink:href="group__nrf24l01__basic__driver.html#gadd88b6deeee81720ad4b5304396a182b" target="_top" xlink:title="set the chip mode">
<polygon fill="white" stroke="#666666" points="268.25,-858 169.75,-858 169.75,-838 268.25,-838 268.25,-858"/>
<text xml:space="preserve" text-anchor="middle" x="219" y="-844.5" font-family="Helvetica,sans-Serif" font-size="10.00">nrf24l01_set_mode</text>
</a>
</g>
</g>
<!-- Node1&#45;&gt;Node28 -->
<g id="edge27_Node000001_Node000028" class="edge">
<title>Node1&#45;&gt;Node28</title>
<g id="a_edge27_Node000001_Node000028"><a xlink:title=" ">
<path fill="none" stroke="#63b8ff" d="M50.92,-1041.66C55.82,-1010.09 75.07,-914.17 133,-867 140.42,-860.96 149.36,-856.75 158.62,-853.82"/>
<polygon fill="#63b8ff" stroke="#63b8ff" points="159.31,-857.26 168.09,-851.34 157.53,-850.49 159.31,-857.26"/>
</a>
</g>
</g>
<!-- Node29 -->
<g id="Node000029" class="node">
<title>Node29</title>
<g id="a_Node000029"><a xlink:href="group__nrf24l01__basic__driver.html#ga5cfb6dc78a99958927b1a6ca63461245" target="_top" xlink:title="set the output power">
<polygon fill="white" stroke="#666666" points="269.75,-820 168.25,-820 168.25,-788 269.75,-788 269.75,-820"/>
<text xml:space="preserve" text-anchor="start" x="176.25" y="-806.5" font-family="Helvetica,sans-Serif" font-size="10.00">nrf24l01_set_output</text>
<text xml:space="preserve" text-anchor="middle" x="219" y="-794.5" font-family="Helvetica,sans-Serif" font-size="10.00">_power</text>
</a>
</g>
</g>
<!-- Node1&#45;&gt;Node29 -->
<g id="edge28_Node000001_Node000029" class="edge">
<title>Node1&#45;&gt;Node29</title>
<g id="a_edge28_Node000001_Node000029"><a xlink:title=" ">
<path fill="none" stroke="#63b8ff" d="M50.21,-1041.58C53.19,-1006.22 67.77,-889.68 133,-829 139.96,-822.52 148.52,-817.72 157.49,-814.15"/>
<polygon fill="#63b8ff" stroke="#63b8ff" points="158.38,-817.55 166.71,-811 156.12,-810.92 158.38,-817.55"/>
</a>
</g>
</g>
<!-- Node30 -->
<g id="Node000030" class="node">
<title>Node30</title>
<g id="a_Node000030"><a xlink:href="group__nrf24l01__basic__driver.html#ga4ee559be38dbf11a1af6e6d769c5b284" target="_top" xlink:title="enable or disable the payload with ack">
<polygon fill="white" stroke="#666666" points="273.12,-770 164.88,-770 164.88,-738 273.12,-738 273.12,-770"/>
<text xml:space="preserve" text-anchor="start" x="172.88" y="-756.5" font-family="Helvetica,sans-Serif" font-size="10.00">nrf24l01_set_payload</text>
<text xml:space="preserve" text-anchor="middle" x="219" y="-744.5" font-family="Helvetica,sans-Serif" font-size="10.00">_with_ack</text>
</a>
</g>
</g>
<!-- Node1&#45;&gt;Node30 -->
<g id="edge29_Node000001_Node000030" class="edge">
<title>Node1&#45;&gt;Node30</title>
<g id="a_edge29_Node000001_Node000030"><a xlink:title=" ">
<path fill="none" stroke="#63b8ff" d="M49.39,-1041.6C49.56,-1001.52 55.66,-855.51 133,-779 139.01,-773.06 146.35,-768.51 154.18,-765.04"/>
<polygon fill="#63b8ff" stroke="#63b8ff" points="155.15,-768.42 163.26,-761.61 152.67,-761.87 155.15,-768.42"/>
</a>
</g>
</g>
<!-- Node31 -->
<g id="Node000031" class="node">
<title>Node31</title>
<g id="a_Node000031"><a xlink:href="group__nrf24l01__basic__driver.html#ga1af17d33b9bbbc77d8e0a1ec6a63be2d" target="_top" xlink:title="set the pipe 0 payload number">
<polygon fill="white" stroke="#666666" points="270.5,-720 167.5,-720 167.5,-688 270.5,-688 270.5,-720"/>
<text xml:space="preserve" text-anchor="start" x="175.5" y="-706.5" font-family="Helvetica,sans-Serif" font-size="10.00">nrf24l01_set_pipe_0</text>
<text xml:space="preserve" text-anchor="middle" x="219" y="-694.5" font-family="Helvetica,sans-Serif" font-size="10.00">_payload_number</text>
</a>
</g>
</g>
<!-- Node1&#45;&gt;Node31 -->
<g id="edge30_Node000001_Node000031" class="edge">
<title>Node1&#45;&gt;Node31</title>
<g id="a_edge30_Node000001_Node000031"><a xlink:title=" ">
<path fill="none" stroke="#63b8ff" d="M50.8,-1041.67C57.26,-991.76 87.49,-776.04 133,-729 139.46,-722.32 147.61,-717.4 156.29,-713.78"/>
<polygon fill="#63b8ff" stroke="#63b8ff" points="157.36,-717.11 165.63,-710.49 155.04,-710.51 157.36,-717.11"/>
</a>
</g>
</g>
<!-- Node32 -->
<g id="Node000032" class="node">
<title>Node32</title>
<g id="a_Node000032"><a xlink:href="group__nrf24l01__basic__driver.html#gaeb345fa5df1fe5827a8a99a3caed1829" target="_top" xlink:title="set the pipe 1 payload number">
<polygon fill="white" stroke="#666666" points="270.5,-670 167.5,-670 167.5,-638 270.5,-638 270.5,-670"/>
<text xml:space="preserve" text-anchor="start" x="175.5" y="-656.5" font-family="Helvetica,sans-Serif" font-size="10.00">nrf24l01_set_pipe_1</text>
<text xml:space="preserve" text-anchor="middle" x="219" y="-644.5" font-family="Helvetica,sans-Serif" font-size="10.00">_payload_number</text>
</a>
</g>
</g>
<!-- Node1&#45;&gt;Node32 -->
<g id="edge31_Node000001_Node000032" class="edge">
<title>Node1&#45;&gt;Node32</title>
<g id="a_edge31_Node000001_Node000032"><a xlink:title=" ">
<path fill="none" stroke="#63b8ff" d="M50.42,-1041.57C55.46,-986.95 81.3,-734.22 133,-679 139.5,-672.06 147.81,-667.01 156.69,-663.35"/>
<polygon fill="#63b8ff" stroke="#63b8ff" points="157.57,-666.75 165.86,-660.15 155.27,-660.14 157.57,-666.75"/>
</a>
</g>
</g>
<!-- Node33 -->
<g id="Node000033" class="node">
<title>Node33</title>
<g id="a_Node000033"><a xlink:href="group__nrf24l01__basic__driver.html#ga1ab2f12430c0820a72b4b9b4548ad83b" target="_top" xlink:title="set the pipe 2 payload number">
<polygon fill="white" stroke="#666666" points="270.5,-620 167.5,-620 167.5,-588 270.5,-588 270.5,-620"/>
<text xml:space="preserve" text-anchor="start" x="175.5" y="-606.5" font-family="Helvetica,sans-Serif" font-size="10.00">nrf24l01_set_pipe_2</text>
<text xml:space="preserve" text-anchor="middle" x="219" y="-594.5" font-family="Helvetica,sans-Serif" font-size="10.00">_payload_number</text>
</a>
</g>
</g>
<!-- Node1&#45;&gt;Node33 -->
<g id="edge32_Node000001_Node000033" class="edge">
<title>Node1&#45;&gt;Node33</title>
<g id="a_edge32_Node000001_Node000033"><a xlink:title=" ">
<path fill="none" stroke="#63b8ff" d="M50.11,-1041.76C53.81,-983.36 74.97,-692.58 133,-629 139.41,-621.98 147.68,-616.89 156.54,-613.21"/>
<polygon fill="#63b8ff" stroke="#63b8ff" points="157.42,-616.61 165.7,-610.01 155.11,-610 157.42,-616.61"/>
</a>
</g>
</g>
<!-- Node34 -->
<g id="Node000034" class="node">
<title>Node34</title>
<g id="a_Node000034"><a xlink:href="group__nrf24l01__basic__driver.html#ga8ff5f3982de547f5dc6a9bb531653a37" target="_top" xlink:title="set the pipe 3 payload number">
<polygon fill="white" stroke="#666666" points="270.5,-570 167.5,-570 167.5,-538 270.5,-538 270.5,-570"/>
<text xml:space="preserve" text-anchor="start" x="175.5" y="-556.5" font-family="Helvetica,sans-Serif" font-size="10.00">nrf24l01_set_pipe_3</text>
<text xml:space="preserve" text-anchor="middle" x="219" y="-544.5" font-family="Helvetica,sans-Serif" font-size="10.00">_payload_number</text>
</a>
</g>
</g>
<!-- Node1&#45;&gt;Node34 -->
<g id="edge33_Node000001_Node000034" class="edge">
<title>Node1&#45;&gt;Node34</title>
<g id="a_edge33_Node000001_Node000034"><a xlink:title=" ">
<path fill="none" stroke="#63b8ff" d="M49.88,-1041.81C52.4,-979.57 68.65,-650.94 133,-579 139.41,-571.83 147.76,-566.67 156.72,-562.97"/>
<polygon fill="#63b8ff" stroke="#63b8ff" points="157.71,-566.33 166.01,-559.75 155.42,-559.72 157.71,-566.33"/>
</a>
</g>
</g>
<!-- Node35 -->
<g id="Node000035" class="node">
<title>Node35</title>
<g id="a_Node000035"><a xlink:href="group__nrf24l01__basic__driver.html#ga419c21aec6f591e2d2d287a846360a05" target="_top" xlink:title="set the pipe 4 payload number">
<polygon fill="white" stroke="#666666" points="270.5,-520 167.5,-520 167.5,-488 270.5,-488 270.5,-520"/>
<text xml:space="preserve" text-anchor="start" x="175.5" y="-506.5" font-family="Helvetica,sans-Serif" font-size="10.00">nrf24l01_set_pipe_4</text>
<text xml:space="preserve" text-anchor="middle" x="219" y="-494.5" font-family="Helvetica,sans-Serif" font-size="10.00">_payload_number</text>
</a>
</g>
</g>
<!-- Node1&#45;&gt;Node35 -->
<g id="edge34_Node000001_Node000035" class="edge">
<title>Node1&#45;&gt;Node35</title>
<g id="a_edge34_Node000001_Node000035"><a xlink:title=" ">
<path fill="none" stroke="#63b8ff" d="M49.7,-1041.62C51.16,-975.12 62.4,-609.25 133,-529 139.35,-521.78 147.67,-516.59 156.62,-512.88"/>
<polygon fill="#63b8ff" stroke="#63b8ff" points="157.6,-516.24 165.91,-509.66 155.31,-509.63 157.6,-516.24"/>
</a>
</g>
</g>
<!-- Node36 -->
<g id="Node000036" class="node">
<title>Node36</title>
<g id="a_Node000036"><a xlink:href="group__nrf24l01__basic__driver.html#gacfddaa68da7ba258080868dfc09b6443" target="_top" xlink:title="set the pipe 5 payload number">
<polygon fill="white" stroke="#666666" points="270.5,-470 167.5,-470 167.5,-438 270.5,-438 270.5,-470"/>
<text xml:space="preserve" text-anchor="start" x="175.5" y="-456.5" font-family="Helvetica,sans-Serif" font-size="10.00">nrf24l01_set_pipe_5</text>
<text xml:space="preserve" text-anchor="middle" x="219" y="-444.5" font-family="Helvetica,sans-Serif" font-size="10.00">_payload_number</text>
</a>
</g>
</g>
<!-- Node1&#45;&gt;Node36 -->
<g id="edge35_Node000001_Node000036" class="edge">
<title>Node1&#45;&gt;Node36</title>
<g id="a_edge35_Node000001_Node000036"><a xlink:title=" ">
<path fill="none" stroke="#63b8ff" d="M49.54,-1041.55C50.01,-971.29 56.08,-567.65 133,-479 139.3,-471.74 147.6,-466.53 156.54,-462.81"/>
<polygon fill="#63b8ff" stroke="#63b8ff" points="157.52,-466.17 165.82,-459.58 155.22,-459.56 157.52,-466.17"/>
</a>
</g>
</g>
<!-- Node37 -->
<g id="Node000037" class="node">
<title>Node37</title>
<g id="a_Node000037"><a xlink:href="group__nrf24l01__basic__driver.html#ga2c3a20012ccf254698861d84670db095" target="_top" xlink:title="enable or disable the pipe dynamic payload">
<polygon fill="white" stroke="#666666" points="286.25,-420 151.75,-420 151.75,-388 286.25,-388 286.25,-420"/>
<text xml:space="preserve" text-anchor="start" x="159.75" y="-406.5" font-family="Helvetica,sans-Serif" font-size="10.00">nrf24l01_set_pipe_dynamic</text>
<text xml:space="preserve" text-anchor="middle" x="219" y="-394.5" font-family="Helvetica,sans-Serif" font-size="10.00">_payload</text>
</a>
</g>
</g>
<!-- Node1&#45;&gt;Node37 -->
<g id="edge36_Node000001_Node000037" class="edge">
<title>Node1&#45;&gt;Node37</title>
<g id="a_edge36_Node000001_Node000037"><a xlink:title=" ">
<path fill="none" stroke="#63b8ff" d="M49.41,-1041.61C48.94,-968.06 49.7,-526.12 133,-429 135.63,-425.93 138.62,-423.23 141.87,-420.85"/>
<polygon fill="#63b8ff" stroke="#63b8ff" points="143.56,-423.91 150.31,-415.75 139.94,-417.92 143.56,-423.91"/>
</a>
</g>
</g>
<!-- Node38 -->
<g id="Node000038" class="node">
<title>Node38</title>
<g id="a_Node000038"><a xlink:href="group__nrf24l01__basic__driver.html#gabe1ed8ad6098b6b65823b4e7f2ec9a1f" target="_top" xlink:title="enable or disable rx pipe">
<polygon fill="white" stroke="#666666" points="272,-370 166,-370 166,-350 272,-350 272,-370"/>
<text xml:space="preserve" text-anchor="middle" x="219" y="-356.5" font-family="Helvetica,sans-Serif" font-size="10.00">nrf24l01_set_rx_pipe</text>
</a>
</g>
</g>
<!-- Node1&#45;&gt;Node38 -->
<g id="edge37_Node000001_Node000038" class="edge">
<title>Node1&#45;&gt;Node38</title>
<g id="a_edge37_Node000001_Node000038"><a xlink:title=" ">
<path fill="none" stroke="#63b8ff" d="M50.08,-1041.52C54.67,-960.11 86.26,-430.48 133,-379 138.87,-372.54 146.41,-368.03 154.57,-364.91"/>
<polygon fill="#63b8ff" stroke="#63b8ff" points="155.57,-368.26 164.12,-362.01 153.54,-361.57 155.57,-368.26"/>
</a>
</g>
</g>
<!-- Node39 -->
<g id="Node000039" class="node">
<title>Node39</title>
<g id="a_Node000039"><a xlink:href="group__nrf24l01__basic__driver.html#gaf9b0970faffe3b049a1ac53c7b0cb4b4" target="_top" xlink:title="set the rx pipe 0 address">
<polygon fill="white" stroke="#666666" points="272,-332 166,-332 166,-300 272,-300 272,-332"/>
<text xml:space="preserve" text-anchor="start" x="174" y="-318.5" font-family="Helvetica,sans-Serif" font-size="10.00">nrf24l01_set_rx_pipe</text>
<text xml:space="preserve" text-anchor="middle" x="219" y="-306.5" font-family="Helvetica,sans-Serif" font-size="10.00">_0_address</text>
</a>
</g>
</g>
<!-- Node1&#45;&gt;Node39 -->
<g id="edge38_Node000001_Node000039" class="edge">
<title>Node1&#45;&gt;Node39</title>
<g id="a_edge38_Node000001_Node000039"><a xlink:title=" ">
<path fill="none" stroke="#63b8ff" d="M50.03,-1041.76C54.39,-958.73 85.51,-397.28 133,-341 138.92,-333.98 146.71,-328.87 155.17,-325.17"/>
<polygon fill="#63b8ff" stroke="#63b8ff" points="156.12,-328.55 164.31,-321.84 153.72,-321.97 156.12,-328.55"/>
</a>
</g>
</g>
<!-- Node40 -->
<g id="Node000040" class="node">
<title>Node40</title>
<g id="a_Node000040"><a xlink:href="group__nrf24l01__basic__driver.html#ga637287e1d4f29b94f331e55b1bd375e6" target="_top" xlink:title="set the rx pipe 1 address">
<polygon fill="white" stroke="#666666" points="272,-282 166,-282 166,-250 272,-250 272,-282"/>
<text xml:space="preserve" text-anchor="start" x="174" y="-268.5" font-family="Helvetica,sans-Serif" font-size="10.00">nrf24l01_set_rx_pipe</text>
<text xml:space="preserve" text-anchor="middle" x="219" y="-256.5" font-family="Helvetica,sans-Serif" font-size="10.00">_1_address</text>
</a>
</g>
</g>
<!-- Node1&#45;&gt;Node40 -->
<g id="edge39_Node000001_Node000040" class="edge">
<title>Node1&#45;&gt;Node40</title>
<g id="a_edge39_Node000001_Node000040"><a xlink:title=" ">
<path fill="none" stroke="#63b8ff" d="M49.95,-1041.6C53.81,-954.73 82.34,-351.51 133,-291 138.9,-283.96 146.67,-278.84 155.12,-275.13"/>
<polygon fill="#63b8ff" stroke="#63b8ff" points="156.07,-278.51 164.26,-271.79 153.67,-271.94 156.07,-278.51"/>
</a>
</g>
</g>
<!-- Node41 -->
<g id="Node000041" class="node">
<title>Node41</title>
<g id="a_Node000041"><a xlink:href="group__nrf24l01__basic__driver.html#gadb499c6320de95eb0d9bf20ac52059cc" target="_top" xlink:title="set the rx pipe 2 address">
<polygon fill="white" stroke="#666666" points="272,-232 166,-232 166,-200 272,-200 272,-232"/>
<text xml:space="preserve" text-anchor="start" x="174" y="-218.5" font-family="Helvetica,sans-Serif" font-size="10.00">nrf24l01_set_rx_pipe</text>
<text xml:space="preserve" text-anchor="middle" x="219" y="-206.5" font-family="Helvetica,sans-Serif" font-size="10.00">_2_address</text>
</a>
</g>
</g>
<!-- Node1&#45;&gt;Node41 -->
<g id="edge40_Node000001_Node000041" class="edge">
<title>Node1&#45;&gt;Node41</title>
<g id="a_edge40_Node000001_Node000041"><a xlink:title=" ">
<path fill="none" stroke="#63b8ff" d="M49.87,-1041.78C53.2,-952.43 79.1,-305.82 133,-241 138.87,-233.94 146.63,-228.81 155.08,-225.1"/>
<polygon fill="#63b8ff" stroke="#63b8ff" points="156.02,-228.48 164.22,-221.76 153.62,-221.9 156.02,-228.48"/>
</a>
</g>
</g>
<!-- Node42 -->
<g id="Node000042" class="node">
<title>Node42</title>
<g id="a_Node000042"><a xlink:href="group__nrf24l01__basic__driver.html#ga17d6f218795e1633d142b7c70d7d7a43" target="_top" xlink:title="set the rx pipe 3 address">
<polygon fill="white" stroke="#666666" points="272,-182 166,-182 166,-150 272,-150 272,-182"/>
<text xml:space="preserve" text-anchor="start" x="174" y="-168.5" font-family="Helvetica,sans-Serif" font-size="10.00">nrf24l01_set_rx_pipe</text>
<text xml:space="preserve" text-anchor="middle" x="219" y="-156.5" font-family="Helvetica,sans-Serif" font-size="10.00">_3_address</text>
</a>
</g>
</g>
<!-- Node1&#45;&gt;Node42 -->
<g id="edge41_Node000001_Node000042" class="edge">
<title>Node1&#45;&gt;Node42</title>
<g id="a_edge41_Node000001_Node000042"><a xlink:title=" ">
<path fill="none" stroke="#63b8ff" d="M49.81,-1041.74C52.68,-949.19 75.89,-260.09 133,-191 138.85,-183.92 146.6,-178.78 155.04,-175.07"/>
<polygon fill="#63b8ff" stroke="#63b8ff" points="155.99,-178.45 164.18,-171.72 153.58,-171.87 155.99,-178.45"/>
</a>
</g>
</g>
<!-- Node43 -->
<g id="Node000043" class="node">
<title>Node43</title>
<g id="a_Node000043"><a xlink:href="group__nrf24l01__basic__driver.html#gafd237493bdec9f33fb0e76d58c481634" target="_top" xlink:title="set the rx pipe 4 address">
<polygon fill="white" stroke="#666666" points="272,-132 166,-132 166,-100 272,-100 272,-132"/>
<text xml:space="preserve" text-anchor="start" x="174" y="-118.5" font-family="Helvetica,sans-Serif" font-size="10.00">nrf24l01_set_rx_pipe</text>
<text xml:space="preserve" text-anchor="middle" x="219" y="-106.5" font-family="Helvetica,sans-Serif" font-size="10.00">_4_address</text>
</a>
</g>
</g>
<!-- Node1&#45;&gt;Node43 -->
<g id="edge42_Node000001_Node000043" class="edge">
<title>Node1&#45;&gt;Node43</title>
<g id="a_edge42_Node000001_Node000043"><a xlink:title=" ">
<path fill="none" stroke="#63b8ff" d="M49.75,-1041.75C52.17,-946.29 72.67,-214.38 133,-141 138.83,-133.9 146.57,-128.76 155.01,-125.04"/>
<polygon fill="#63b8ff" stroke="#63b8ff" points="155.95,-128.42 164.14,-121.7 153.55,-121.85 155.95,-128.42"/>
</a>
</g>
</g>
<!-- Node44 -->
<g id="Node000044" class="node">
<title>Node44</title>
<g id="a_Node000044"><a xlink:href="group__nrf24l01__basic__driver.html#gaa7b80346aeb78d11f7eeeef7f9edb582" target="_top" xlink:title="set the rx pipe 5 address">
<polygon fill="white" stroke="#666666" points="272,-82 166,-82 166,-50 272,-50 272,-82"/>
<text xml:space="preserve" text-anchor="start" x="174" y="-68.5" font-family="Helvetica,sans-Serif" font-size="10.00">nrf24l01_set_rx_pipe</text>
<text xml:space="preserve" text-anchor="middle" x="219" y="-56.5" font-family="Helvetica,sans-Serif" font-size="10.00">_5_address</text>
</a>
</g>
</g>
<!-- Node1&#45;&gt;Node44 -->
<g id="edge43_Node000001_Node000044" class="edge">
<title>Node1&#45;&gt;Node44</title>
<g id="a_edge43_Node000001_Node000044"><a xlink:title=" ">
<path fill="none" stroke="#63b8ff" d="M49.7,-1041.51C51.73,-942.12 69.51,-168.61 133,-91 138.82,-83.89 146.55,-78.74 154.98,-75.01"/>
<polygon fill="#63b8ff" stroke="#63b8ff" points="155.92,-78.4 164.11,-71.67 153.51,-71.82 155.92,-78.4"/>
</a>
</g>
</g>
<!-- Node45 -->
<g id="Node000045" class="node">
<title>Node45</title>
<g id="a_Node000045"><a xlink:href="group__nrf24l01__basic__driver.html#ga258d3a9c7d07db7357f8b226c497adce" target="_top" xlink:title="enable or disable the tx payload with no ack">
<polygon fill="white" stroke="#666666" points="279.88,-32 158.12,-32 158.12,0 279.88,0 279.88,-32"/>
<text xml:space="preserve" text-anchor="start" x="166.12" y="-18.5" font-family="Helvetica,sans-Serif" font-size="10.00">nrf24l01_set_tx_payload</text>
<text xml:space="preserve" text-anchor="middle" x="219" y="-6.5" font-family="Helvetica,sans-Serif" font-size="10.00">_with_no_ack</text>
</a>
</g>
</g>
<!-- Node1&#45;&gt;Node45 -->
<g id="edge44_Node000001_Node000045" class="edge">
<title>Node1&#45;&gt;Node45</title>
<g id="a_edge44_Node000001_Node000045"><a xlink:title=" ">
<path fill="none" stroke="#63b8ff" d="M49.66,-1041.61C51.27,-939.82 66.26,-122.93 133,-41 137.01,-36.08 141.93,-32.1 147.37,-28.88"/>
<polygon fill="#63b8ff" stroke="#63b8ff" points="148.82,-32.06 156.27,-24.53 145.75,-25.77 148.82,-32.06"/>
</a>
</g>
</g>
</g>
</svg>
