<?xml version="1.0" encoding="UTF-8" standalone="no"?>
<!DOCTYPE svg PUBLIC "-//W3C//DTD SVG 1.1//EN"
 "http://www.w3.org/Graphics/SVG/1.1/DTD/svg11.dtd">
<!-- Generated by graphviz version 13.1.0 (20250701.0955)
 -->
<!-- Title: nrf24l01_basic_send Pages: 1 -->
<svg width="272pt" height="154pt"
 viewBox="0.00 0.00 272.00 154.00" xmlns="http://www.w3.org/2000/svg" xmlns:xlink="http://www.w3.org/1999/xlink">
<g id="graph0" class="graph" transform="scale(1 1) rotate(0) translate(4 150)">
<title>nrf24l01_basic_send</title>
<!-- Node1 -->
<g id="Node000001" class="node">
<title>Node1</title>
<g id="a_Node000001"><a xlink:title="basic example send">
<polygon fill="#999999" stroke="#666666" points="105.25,-86 0,-86 0,-66 105.25,-66 105.25,-86"/>
<text xml:space="preserve" text-anchor="middle" x="52.62" y="-72.5" font-family="Helvetica,sans-Serif" font-size="10.00">nrf24l01_basic_send</text>
</a>
</g>
</g>
<!-- Node2 -->
<g id="Node000002" class="node">
<title>Node2</title>
<g id="a_Node000002"><a xlink:href="group__nrf24l01__basic__driver.html#ga4d16ffba1278d7350757277cffbbbdd0" target="_top" xlink:title="send data">
<polygon fill="white" stroke="#666666" points="240.88,-146 164.12,-146 164.12,-126 240.88,-126 240.88,-146"/>
<text xml:space="preserve" text-anchor="middle" x="202.5" y="-132.5" font-family="Helvetica,sans-Serif" font-size="10.00">nrf24l01_send</text>
</a>
</g>
</g>
<!-- Node1&#45;&gt;Node2 -->
<g id="edge1_Node000001_Node000002" class="edge">
<title>Node1&#45;&gt;Node2</title>
<g id="a_edge1_Node000001_Node000002"><a xlink:title=" ">
<path fill="none" stroke="#63b8ff" d="M73.83,-86.39C91.38,-95.18 117.62,-107.79 141.25,-117 145.62,-118.7 150.21,-120.37 154.82,-121.96"/>
<polygon fill="#63b8ff" stroke="#63b8ff" points="153.52,-125.21 164.11,-125.04 155.72,-118.57 153.52,-125.21"/>
</a>
</g>
</g>
<!-- Node3 -->
<g id="Node000003" class="node">
<title>Node3</title>
<g id="a_Node000003"><a xlink:href="group__nrf24l01__basic__driver.html#gab267d4890252f71ebe1f3c53de4869c2" target="_top" xlink:title="enable or disable the chip">
<polygon fill="white" stroke="#666666" points="252.88,-108 152.12,-108 152.12,-88 252.88,-88 252.88,-108"/>
<text xml:space="preserve" text-anchor="middle" x="202.5" y="-94.5" font-family="Helvetica,sans-Serif" font-size="10.00">nrf24l01_set_active</text>
</a>
</g>
</g>
<!-- Node1&#45;&gt;Node3 -->
<g id="edge2_Node000001_Node000003" class="edge">
<title>Node1&#45;&gt;Node3</title>
<g id="a_edge2_Node000001_Node000003"><a xlink:title=" ">
<path fill="none" stroke="#63b8ff" d="M105.34,-83.69C116.83,-85.4 129.11,-87.23 140.91,-88.99"/>
<polygon fill="#63b8ff" stroke="#63b8ff" points="140.14,-92.41 150.55,-90.42 141.17,-85.49 140.14,-92.41"/>
</a>
</g>
</g>
<!-- Node4 -->
<g id="Node000004" class="node">
<title>Node4</title>
<g id="a_Node000004"><a xlink:href="group__nrf24l01__basic__driver.html#gaf9b0970faffe3b049a1ac53c7b0cb4b4" target="_top" xlink:title="set the rx pipe 0 address">
<polygon fill="white" stroke="#666666" points="255.5,-70 149.5,-70 149.5,-38 255.5,-38 255.5,-70"/>
<text xml:space="preserve" text-anchor="start" x="157.5" y="-56.5" font-family="Helvetica,sans-Serif" font-size="10.00">nrf24l01_set_rx_pipe</text>
<text xml:space="preserve" text-anchor="middle" x="202.5" y="-44.5" font-family="Helvetica,sans-Serif" font-size="10.00">_0_address</text>
</a>
</g>
</g>
<!-- Node1&#45;&gt;Node4 -->
<g id="edge3_Node000001_Node000004" class="edge">
<title>Node1&#45;&gt;Node4</title>
<g id="a_edge3_Node000001_Node000004"><a xlink:title=" ">
<path fill="none" stroke="#63b8ff" d="M105.34,-68.31C115.85,-66.74 127.02,-65.08 137.89,-63.46"/>
<polygon fill="#63b8ff" stroke="#63b8ff" points="138.19,-66.96 147.56,-62.02 137.16,-60.03 138.19,-66.96"/>
</a>
</g>
</g>
<!-- Node5 -->
<g id="Node000005" class="node">
<title>Node5</title>
<g id="a_Node000005"><a xlink:href="group__nrf24l01__basic__driver.html#ga1aaf9b44d5a4aa7f7e97506be8341bb4" target="_top" xlink:title="set the tx address">
<polygon fill="white" stroke="#666666" points="263.75,-20 141.25,-20 141.25,0 263.75,0 263.75,-20"/>
<text xml:space="preserve" text-anchor="middle" x="202.5" y="-6.5" font-family="Helvetica,sans-Serif" font-size="10.00">nrf24l01_set_tx_address</text>
</a>
</g>
</g>
<!-- Node1&#45;&gt;Node5 -->
<g id="edge4_Node000001_Node000005" class="edge">
<title>Node1&#45;&gt;Node5</title>
<g id="a_edge4_Node000001_Node000005"><a xlink:title=" ">
<path fill="none" stroke="#63b8ff" d="M70.61,-65.65C87.93,-55.41 115.8,-39.73 141.25,-29 145.28,-27.3 149.53,-25.67 153.81,-24.12"/>
<polygon fill="#63b8ff" stroke="#63b8ff" points="154.7,-27.52 163.03,-20.97 152.44,-20.89 154.7,-27.52"/>
</a>
</g>
</g>
</g>
</svg>
